<svg width="100" height="71" viewBox="0 0 100 71" fill="none" xmlns="http://www.w3.org/2000/svg">
<path d="M97.3438 17.4062C98.9062 18.0312 100 19.4375 100 21C100 22.7188 98.9062 24.125 97.3438 24.75L53.2812 40.5312C51.0938 41.3125 48.75 41.3125 46.5625 40.5312L16.875 29.9062C15 31.9375 13.5938 34.4375 12.9688 37.25C14.0625 38.0312 15 39.4375 15 41C15 42.5625 14.2188 43.9688 13.125 44.9062L16.875 68.1875C17.1875 69.75 15.9375 71 14.5312 71H5.3125C3.90625 71 2.65625 69.75 2.96875 68.1875L6.71875 44.9062C5.625 43.9688 5 42.5625 5 41C5 38.9688 6.25 37.25 7.96875 36.4688C8.59375 33.3438 10 30.5312 11.875 28.0312L2.5 24.75C0.9375 24.125 0 22.7188 0 21C0 19.4375 0.9375 18.0312 2.5 17.4062L46.4062 1.625C48.5938 0.84375 50.9375 0.84375 53.125 1.625L97.3438 17.4062ZM54.8438 45.2188L77.6562 37.0938L80 59.4375C80 65.8438 66.4062 71 50 71C33.2812 71 20 65.8438 20 59.4375L22.1875 37.0938L45 45.2188C46.5625 45.8438 48.2812 46 50 46C51.5625 46 53.2812 45.8438 54.8438 45.2188Z" fill="#7D46A4"/>
</svg>
