<svg width="303" height="80" viewBox="0 0 303 80" fill="none" xmlns="http://www.w3.org/2000/svg">
<path d="M97.3438 21.4062C98.9062 22.0312 100 23.4375 100 25C100 26.7188 98.9062 28.125 97.3438 28.75L53.2812 44.5312C51.0938 45.3125 48.75 45.3125 46.5625 44.5312L16.875 33.9062C15 35.9375 13.5938 38.4375 12.9688 41.25C14.0625 42.0312 15 43.4375 15 45C15 46.5625 14.2188 47.9688 13.125 48.9062L16.875 72.1875C17.1875 73.75 15.9375 75 14.5312 75H5.3125C3.90625 75 2.65625 73.75 2.96875 72.1875L6.71875 48.9062C5.625 47.9688 5 46.5625 5 45C5 42.9688 6.25 41.25 7.96875 40.4688C8.59375 37.3438 10 34.5312 11.875 32.0312L2.5 28.75C0.9375 28.125 0 26.7188 0 25C0 23.4375 0.9375 22.0312 2.5 21.4062L46.4062 5.625C48.5938 4.84375 50.9375 4.84375 53.125 5.625L97.3438 21.4062ZM54.8438 49.2188L77.6562 41.0938L80 63.4375C80 69.8438 66.4062 75 50 75C33.2812 75 20 69.8438 20 63.4375L22.1875 41.0938L45 49.2188C46.5625 49.8438 48.2812 50 50 50C51.5625 50 53.2812 49.8438 54.8438 49.2188Z" fill="#7D46A4"/>
<path d="M117.096 58V25.36H122.616V58H117.096ZM106.152 29.44V24.4H133.56V29.44H106.152ZM141.342 58.48C139.262 58.48 137.374 57.952 135.678 56.896C134.014 55.84 132.686 54.416 131.694 52.624C130.734 50.8 130.254 48.768 130.254 46.528C130.254 44.256 130.734 42.224 131.694 40.432C132.686 38.608 134.014 37.168 135.678 36.112C137.374 35.024 139.262 34.48 141.342 34.48C143.102 34.48 144.654 34.864 145.998 35.632C147.374 36.368 148.462 37.392 149.262 38.704C150.062 40.016 150.462 41.504 150.462 43.168V49.792C150.462 51.456 150.062 52.944 149.262 54.256C148.494 55.568 147.422 56.608 146.046 57.376C144.67 58.112 143.102 58.48 141.342 58.48ZM142.206 53.488C144.158 53.488 145.726 52.832 146.91 51.52C148.126 50.208 148.734 48.528 148.734 46.48C148.734 45.104 148.462 43.888 147.918 42.832C147.374 41.776 146.606 40.96 145.614 40.384C144.654 39.776 143.518 39.472 142.206 39.472C140.926 39.472 139.79 39.776 138.798 40.384C137.838 40.96 137.07 41.776 136.494 42.832C135.95 43.888 135.678 45.104 135.678 46.48C135.678 47.856 135.95 49.072 136.494 50.128C137.07 51.184 137.838 52.016 138.798 52.624C139.79 53.2 140.926 53.488 142.206 53.488ZM148.398 58V51.808L149.31 46.192L148.398 40.624V34.96H153.678V58H148.398ZM167.073 58.48C165.793 58.48 164.561 58.32 163.377 58C162.193 57.648 161.105 57.168 160.113 56.56C159.121 55.92 158.257 55.152 157.521 54.256L160.881 50.896C161.681 51.824 162.593 52.528 163.617 53.008C164.673 53.456 165.857 53.68 167.169 53.68C168.353 53.68 169.249 53.504 169.857 53.152C170.465 52.8 170.769 52.288 170.769 51.616C170.769 50.912 170.481 50.368 169.905 49.984C169.329 49.6 168.577 49.28 167.649 49.024C166.753 48.736 165.793 48.448 164.769 48.16C163.777 47.872 162.817 47.488 161.889 47.008C160.993 46.496 160.257 45.808 159.681 44.944C159.105 44.08 158.817 42.96 158.817 41.584C158.817 40.112 159.153 38.848 159.825 37.792C160.529 36.736 161.505 35.92 162.753 35.344C164.033 34.768 165.553 34.48 167.313 34.48C169.169 34.48 170.801 34.816 172.209 35.488C173.649 36.128 174.849 37.104 175.809 38.416L172.449 41.776C171.777 40.944 171.009 40.32 170.145 39.904C169.281 39.488 168.289 39.28 167.169 39.28C166.113 39.28 165.297 39.44 164.721 39.76C164.145 40.08 163.857 40.544 163.857 41.152C163.857 41.792 164.145 42.288 164.721 42.64C165.297 42.992 166.033 43.296 166.929 43.552C167.857 43.808 168.817 44.096 169.809 44.416C170.833 44.704 171.793 45.12 172.689 45.664C173.617 46.176 174.369 46.88 174.945 47.776C175.521 48.64 175.809 49.776 175.809 51.184C175.809 53.424 175.025 55.2 173.457 56.512C171.889 57.824 169.761 58.48 167.073 58.48ZM194.802 58L185.058 46.24L194.754 34.96H201.042L189.906 47.632L190.146 44.608L201.522 58H194.802ZM180.162 58V23.44H185.442V58H180.162Z" fill="#0F1A47"/>
<path d="M205.398 58V24.4H210.918V58H205.398ZM209.19 43.6V38.56H226.278V43.6H209.19ZM209.19 29.44V24.4H227.094V29.44H209.19ZM231.866 58V23.44H237.146V58H231.866ZM253.582 58.48C251.342 58.48 249.31 57.952 247.486 56.896C245.662 55.808 244.206 54.352 243.118 52.528C242.062 50.704 241.534 48.672 241.534 46.432C241.534 44.192 242.062 42.176 243.118 40.384C244.206 38.592 245.662 37.168 247.486 36.112C249.31 35.024 251.342 34.48 253.582 34.48C255.854 34.48 257.902 35.008 259.726 36.064C261.55 37.12 262.99 38.56 264.046 40.384C265.134 42.176 265.678 44.192 265.678 46.432C265.678 48.672 265.134 50.704 264.046 52.528C262.99 54.352 261.55 55.808 259.726 56.896C257.902 57.952 255.854 58.48 253.582 58.48ZM253.582 53.392C254.894 53.392 256.046 53.104 257.038 52.528C258.062 51.92 258.846 51.088 259.39 50.032C259.966 48.976 260.254 47.776 260.254 46.432C260.254 45.088 259.966 43.904 259.39 42.88C258.814 41.856 258.03 41.056 257.038 40.48C256.046 39.872 254.894 39.568 253.582 39.568C252.302 39.568 251.15 39.872 250.126 40.48C249.134 41.056 248.35 41.856 247.774 42.88C247.23 43.904 246.958 45.088 246.958 46.432C246.958 47.776 247.23 48.976 247.774 50.032C248.35 51.088 249.134 51.92 250.126 52.528C251.15 53.104 252.302 53.392 253.582 53.392ZM276.226 58L266.962 34.96H272.434L278.674 51.712L277.042 51.76L283.138 34.96H286.21L292.306 51.76L290.674 51.712L296.914 34.96H302.386L293.122 58H290.05L283.81 42.064H285.538L279.298 58H276.226Z" fill="#7D46A4"/>
</svg>
