<svg width="198" height="136" viewBox="0 0 198 136" fill="none" xmlns="http://www.w3.org/2000/svg">
<path d="M152.262 24.332C154.02 25.0352 155.25 26.6172 155.25 28.375C155.25 30.3086 154.02 31.8906 152.262 32.5938L102.691 50.3477C100.23 51.2266 97.5938 51.2266 95.1328 50.3477L61.7344 38.3945C59.625 40.6797 58.043 43.4922 57.3398 46.6562C58.5703 47.5352 59.625 49.1172 59.625 50.875C59.625 52.6328 58.7461 54.2148 57.5156 55.2695L61.7344 81.4609C62.0859 83.2188 60.6797 84.625 59.0977 84.625H48.7266C47.1445 84.625 45.7383 83.2188 46.0898 81.4609L50.3086 55.2695C49.0781 54.2148 48.375 52.6328 48.375 50.875C48.375 48.5898 49.7812 46.6562 51.7148 45.7773C52.418 42.2617 54 39.0977 56.1094 36.2852L45.5625 32.5938C43.8047 31.8906 42.75 30.3086 42.75 28.375C42.75 26.6172 43.8047 25.0352 45.5625 24.332L94.957 6.57812C97.418 5.69922 100.055 5.69922 102.516 6.57812L152.262 24.332ZM104.449 55.6211L130.113 46.4805L132.75 71.6172C132.75 78.8242 117.457 84.625 99 84.625C80.1914 84.625 65.25 78.8242 65.25 71.6172L67.7109 46.4805L93.375 55.6211C95.1328 56.3242 97.0664 56.5 99 56.5C100.758 56.5 102.691 56.3242 104.449 55.6211Z" fill="#7D46A4"/>
<path d="M12.096 124V91.36H17.616V124H12.096ZM1.152 95.44V90.4H28.56V95.44H1.152ZM36.3416 124.48C34.2616 124.48 32.3736 123.952 30.6776 122.896C29.0136 121.84 27.6856 120.416 26.6936 118.624C25.7336 116.8 25.2536 114.768 25.2536 112.528C25.2536 110.256 25.7336 108.224 26.6936 106.432C27.6856 104.608 29.0136 103.168 30.6776 102.112C32.3736 101.024 34.2616 100.48 36.3416 100.48C38.1016 100.48 39.6536 100.864 40.9976 101.632C42.3736 102.368 43.4616 103.392 44.2616 104.704C45.0616 106.016 45.4616 107.504 45.4616 109.168V115.792C45.4616 117.456 45.0616 118.944 44.2616 120.256C43.4936 121.568 42.4216 122.608 41.0456 123.376C39.6696 124.112 38.1016 124.48 36.3416 124.48ZM37.2056 119.488C39.1576 119.488 40.7256 118.832 41.9096 117.52C43.1256 116.208 43.7336 114.528 43.7336 112.48C43.7336 111.104 43.4616 109.888 42.9176 108.832C42.3736 107.776 41.6056 106.96 40.6136 106.384C39.6536 105.776 38.5176 105.472 37.2056 105.472C35.9256 105.472 34.7896 105.776 33.7976 106.384C32.8376 106.96 32.0696 107.776 31.4936 108.832C30.9496 109.888 30.6776 111.104 30.6776 112.48C30.6776 113.856 30.9496 115.072 31.4936 116.128C32.0696 117.184 32.8376 118.016 33.7976 118.624C34.7896 119.2 35.9256 119.488 37.2056 119.488ZM43.3976 124V117.808L44.3096 112.192L43.3976 106.624V100.96H48.6776V124H43.3976ZM62.0734 124.48C60.7934 124.48 59.5614 124.32 58.3774 124C57.1934 123.648 56.1054 123.168 55.1134 122.56C54.1214 121.92 53.2574 121.152 52.5214 120.256L55.8814 116.896C56.6814 117.824 57.5934 118.528 58.6174 119.008C59.6734 119.456 60.8574 119.68 62.1694 119.68C63.3534 119.68 64.2494 119.504 64.8574 119.152C65.4654 118.8 65.7694 118.288 65.7694 117.616C65.7694 116.912 65.4814 116.368 64.9054 115.984C64.3294 115.6 63.5774 115.28 62.6494 115.024C61.7534 114.736 60.7934 114.448 59.7694 114.16C58.7774 113.872 57.8174 113.488 56.8894 113.008C55.9934 112.496 55.2574 111.808 54.6814 110.944C54.1054 110.08 53.8174 108.96 53.8174 107.584C53.8174 106.112 54.1534 104.848 54.8254 103.792C55.5294 102.736 56.5054 101.92 57.7534 101.344C59.0334 100.768 60.5534 100.48 62.3134 100.48C64.1694 100.48 65.8014 100.816 67.2094 101.488C68.6494 102.128 69.8494 103.104 70.8094 104.416L67.4494 107.776C66.7774 106.944 66.0094 106.32 65.1454 105.904C64.2814 105.488 63.2894 105.28 62.1694 105.28C61.1134 105.28 60.2974 105.44 59.7214 105.76C59.1454 106.08 58.8574 106.544 58.8574 107.152C58.8574 107.792 59.1454 108.288 59.7214 108.64C60.2974 108.992 61.0334 109.296 61.9294 109.552C62.8574 109.808 63.8174 110.096 64.8094 110.416C65.8334 110.704 66.7934 111.12 67.6894 111.664C68.6174 112.176 69.3694 112.88 69.9454 113.776C70.5214 114.64 70.8094 115.776 70.8094 117.184C70.8094 119.424 70.0254 121.2 68.4574 122.512C66.8894 123.824 64.7614 124.48 62.0734 124.48ZM89.8024 124L80.0584 112.24L89.7544 100.96H96.0424L84.9064 113.632L85.1464 110.608L96.5224 124H89.8024ZM75.1624 124V89.44H80.4424V124H75.1624Z" fill="#0F1A47"/>
<path d="M100.398 124V90.4H105.918V124H100.398ZM104.19 109.6V104.56H121.278V109.6H104.19ZM104.19 95.44V90.4H122.094V95.44H104.19ZM126.866 124V89.44H132.146V124H126.866ZM148.582 124.48C146.342 124.48 144.31 123.952 142.486 122.896C140.662 121.808 139.206 120.352 138.118 118.528C137.062 116.704 136.534 114.672 136.534 112.432C136.534 110.192 137.062 108.176 138.118 106.384C139.206 104.592 140.662 103.168 142.486 102.112C144.31 101.024 146.342 100.48 148.582 100.48C150.854 100.48 152.902 101.008 154.726 102.064C156.55 103.12 157.99 104.56 159.046 106.384C160.134 108.176 160.678 110.192 160.678 112.432C160.678 114.672 160.134 116.704 159.046 118.528C157.99 120.352 156.55 121.808 154.726 122.896C152.902 123.952 150.854 124.48 148.582 124.48ZM148.582 119.392C149.894 119.392 151.046 119.104 152.038 118.528C153.062 117.92 153.846 117.088 154.39 116.032C154.966 114.976 155.254 113.776 155.254 112.432C155.254 111.088 154.966 109.904 154.39 108.88C153.814 107.856 153.03 107.056 152.038 106.48C151.046 105.872 149.894 105.568 148.582 105.568C147.302 105.568 146.15 105.872 145.126 106.48C144.134 107.056 143.35 107.856 142.774 108.88C142.23 109.904 141.958 111.088 141.958 112.432C141.958 113.776 142.23 114.976 142.774 116.032C143.35 117.088 144.134 117.92 145.126 118.528C146.15 119.104 147.302 119.392 148.582 119.392ZM171.226 124L161.962 100.96H167.434L173.674 117.712L172.042 117.76L178.138 100.96H181.21L187.306 117.76L185.674 117.712L191.914 100.96H197.386L188.122 124H185.05L178.81 108.064H180.538L174.298 124H171.226Z" fill="#7D46A4"/>
</svg>
